<svg xmlns="http://www.w3.org/2000/svg" xmlns:xlink="http://www.w3.org/1999/xlink" width="26.62" height="27" viewBox="0 0 26.62 27">
  <metadata><?xpacket begin="﻿" id="W5M0MpCehiHzreSzNTczkc9d"?>
<x:xmpmeta xmlns:x="adobe:ns:meta/" x:xmptk="Adobe XMP Core 5.6-c138 79.159824, 2016/09/14-01:09:01        ">
   <rdf:RDF xmlns:rdf="http://www.w3.org/1999/02/22-rdf-syntax-ns#">
      <rdf:Description rdf:about=""/>
   </rdf:RDF>
</x:xmpmeta>
                                                                                                    
                                                                                                    
                                                                                                    
                                                                                                    
                                                                                                    
                                                                                                    
                                                                                                    
                                                                                                    
                                                                                                    
                                                                                                    
                                                                                                    
                                                                                                    
                                                                                                    
                                                                                                    
                                                                                                    
                                                                                                    
                                                                                                    
                                                                                                    
                                                                                                    
                                                                                                    
                           
<?xpacket end="w"?></metadata>
<defs>
    <style>
      .cls-1 {
        fill-rule: evenodd;
        filter: url(#filter);
      }
    </style>
    <filter id="filter" x="1259.38" y="1497" width="26.62" height="27" filterUnits="userSpaceOnUse">
      <feFlood result="flood" flood-color="#fff"/>
      <feComposite result="composite" operator="in" in2="SourceGraphic"/>
      <feBlend result="blend" in2="SourceGraphic"/>
    </filter>
  </defs>
  <path id="Forma_1_копия_4" data-name="Forma 1 копия 4" class="cls-1" d="M1272.69,1497a13.5,13.5,0,1,0,13.31,13.5A13.4,13.4,0,0,0,1272.69,1497Zm7.03,19.7-1.07,1.08a1.945,1.945,0,0,1-.76.31,12.469,12.469,0,0,1-9-3.73,12.864,12.864,0,0,1-3.69-9.16,2.117,2.117,0,0,1,.32-0.75l1.06-1.08a1.811,1.811,0,0,1,1.67-.4l0.22,0.08a2.166,2.166,0,0,1,1.22,1.31l0.53,1.99a1.968,1.968,0,0,1-.44,1.71l-0.71.72a7.6,7.6,0,0,0,5.32,5.39l0.71-.72a1.942,1.942,0,0,1,1.68-.45l1.97,0.55a2.147,2.147,0,0,1,1.29,1.23l0.07,0.23A1.852,1.852,0,0,1,1279.72,1516.7Z" transform="translate(-1259.38 -1497)"/>
</svg>
