<svg xmlns="http://www.w3.org/2000/svg" width="17" height="22" viewBox="0 0 17 22">
  <metadata><?xpacket begin="﻿" id="W5M0MpCehiHzreSzNTczkc9d"?>
<x:xmpmeta xmlns:x="adobe:ns:meta/" x:xmptk="Adobe XMP Core 5.6-c138 79.159824, 2016/09/14-01:09:01        ">
   <rdf:RDF xmlns:rdf="http://www.w3.org/1999/02/22-rdf-syntax-ns#">
      <rdf:Description rdf:about=""/>
   </rdf:RDF>
</x:xmpmeta>
                                                                                                    
                                                                                                    
                                                                                                    
                                                                                                    
                                                                                                    
                                                                                                    
                                                                                                    
                                                                                                    
                                                                                                    
                                                                                                    
                                                                                                    
                                                                                                    
                                                                                                    
                                                                                                    
                                                                                                    
                                                                                                    
                                                                                                    
                                                                                                    
                                                                                                    
                                                                                                    
                           
<?xpacket end="w"?></metadata>
<defs>
    <style>
      .cls-1 {
        fill: #fff;
        fill-rule: evenodd;
      }
    </style>
  </defs>
  <path id="Location_mark_on_printed_map_designed_by_Freepik_from_Flaticon.com" data-name="Location mark on printed map designed by Freepik from Flaticon.com" class="cls-1" d="M8.522,0H8.5A8.477,8.477,0,0,0,.248,10.525,7.792,7.792,0,0,0,.6,11.781,22.21,22.21,0,0,0,4.042,17.7C4.952,18.875,6.831,22,8.5,22c1.774,0,3.808-3.474,4.731-4.717a21.863,21.863,0,0,0,3.159-5.469,8.143,8.143,0,0,0,.361-1.289A8.474,8.474,0,0,0,8.522,0Zm0.7,12.69a4.8,4.8,0,0,1-.727.059,4.485,4.485,0,0,1-3.918-2.3,4.423,4.423,0,0,1-.558-2.158A4.484,4.484,0,1,1,9.226,12.692Z"/>
</svg>
