<svg xmlns="http://www.w3.org/2000/svg" width="23" height="18" viewBox="0 0 23 18">
  <metadata><?xpacket begin="﻿" id="W5M0MpCehiHzreSzNTczkc9d"?>
<x:xmpmeta xmlns:x="adobe:ns:meta/" x:xmptk="Adobe XMP Core 5.6-c138 79.159824, 2016/09/14-01:09:01        ">
   <rdf:RDF xmlns:rdf="http://www.w3.org/1999/02/22-rdf-syntax-ns#">
      <rdf:Description rdf:about=""/>
   </rdf:RDF>
</x:xmpmeta>
                                                                                                    
                                                                                                    
                                                                                                    
                                                                                                    
                                                                                                    
                                                                                                    
                                                                                                    
                                                                                                    
                                                                                                    
                                                                                                    
                                                                                                    
                                                                                                    
                                                                                                    
                                                                                                    
                                                                                                    
                                                                                                    
                                                                                                    
                                                                                                    
                                                                                                    
                                                                                                    
                           
<?xpacket end="w"?></metadata>
<defs>
    <style>
      .cls-1 {
        fill: #fff;
        fill-rule: evenodd;
      }
    </style>
  </defs>
  <path id="Message_Closed_Envelope_designed_by_Freepik_from_Flaticon.com" data-name="Message Closed Envelope designed by Freepik from Flaticon.com" class="cls-1" d="M840.269,14H822.731A2.72,2.72,0,0,0,820,16.7V29.3a2.719,2.719,0,0,0,2.73,2.7h17.538A2.718,2.718,0,0,0,843,29.3V16.7A2.719,2.719,0,0,0,840.269,14Zm0,15.618H822.731a0.386,0.386,0,0,1-.415-0.317V18.366l7.932,6.9a0.885,0.885,0,0,0,.582.22h1.339a0.89,0.89,0,0,0,.583-0.22l7.932-6.9V29.3A0.386,0.386,0,0,1,840.269,29.616Zm-8.769-6.5-7.715-6.736h15.43Z" transform="translate(-820 -14)"/>
</svg>
