<svg xmlns="http://www.w3.org/2000/svg" xmlns:xlink="http://www.w3.org/1999/xlink" width="26.625" height="27" viewBox="0 0 26.625 27">
  <metadata><?xpacket begin="﻿" id="W5M0MpCehiHzreSzNTczkc9d"?>
<x:xmpmeta xmlns:x="adobe:ns:meta/" x:xmptk="Adobe XMP Core 5.6-c138 79.159824, 2016/09/14-01:09:01        ">
   <rdf:RDF xmlns:rdf="http://www.w3.org/1999/02/22-rdf-syntax-ns#">
      <rdf:Description rdf:about=""/>
   </rdf:RDF>
</x:xmpmeta>
                                                                                                    
                                                                                                    
                                                                                                    
                                                                                                    
                                                                                                    
                                                                                                    
                                                                                                    
                                                                                                    
                                                                                                    
                                                                                                    
                                                                                                    
                                                                                                    
                                                                                                    
                                                                                                    
                                                                                                    
                                                                                                    
                                                                                                    
                                                                                                    
                                                                                                    
                                                                                                    
                           
<?xpacket end="w"?></metadata>
<defs>
    <style>
      .cls-1 {
        fill-rule: evenodd;
        filter: url(#filter);
      }
    </style>
    <filter id="filter" x="672.375" y="1498" width="26.625" height="27" filterUnits="userSpaceOnUse">
      <feFlood result="flood" flood-color="#fff"/>
      <feComposite result="composite" operator="in" in2="SourceGraphic"/>
      <feBlend result="blend" in2="SourceGraphic"/>
    </filter>
  </defs>
  <path id="Forma_1_копия" data-name="Forma 1 копия" class="cls-1" d="M685.691,1498A13.5,13.5,0,1,0,699,1511.5,13.4,13.4,0,0,0,685.691,1498Zm7.028,19.7-1.066,1.08a1.97,1.97,0,0,1-.765.31,12.48,12.48,0,0,1-9-3.73,12.869,12.869,0,0,1-3.682-9.16,2.055,2.055,0,0,1,.312-0.75l1.066-1.08a1.8,1.8,0,0,1,1.664-.4l0.224,0.08a2.14,2.14,0,0,1,1.217,1.31l0.536,1.99a1.983,1.983,0,0,1-.44,1.71l-0.712.72a7.6,7.6,0,0,0,5.314,5.39l0.712-.72a1.951,1.951,0,0,1,1.685-.45l1.967,0.55a2.124,2.124,0,0,1,1.287,1.23l0.074,0.23A1.841,1.841,0,0,1,692.719,1517.7Z" transform="translate(-672.375 -1498)"/>
</svg>
