<svg xmlns="http://www.w3.org/2000/svg" width="14" height="26" viewBox="0 0 14 26">
  <metadata><?xpacket begin="﻿" id="W5M0MpCehiHzreSzNTczkc9d"?>
<x:xmpmeta xmlns:x="adobe:ns:meta/" x:xmptk="Adobe XMP Core 5.6-c138 79.159824, 2016/09/14-01:09:01        ">
   <rdf:RDF xmlns:rdf="http://www.w3.org/1999/02/22-rdf-syntax-ns#">
      <rdf:Description rdf:about=""/>
   </rdf:RDF>
</x:xmpmeta>
                                                                                                    
                                                                                                    
                                                                                                    
                                                                                                    
                                                                                                    
                                                                                                    
                                                                                                    
                                                                                                    
                                                                                                    
                                                                                                    
                                                                                                    
                                                                                                    
                                                                                                    
                                                                                                    
                                                                                                    
                                                                                                    
                                                                                                    
                                                                                                    
                                                                                                    
                                                                                                    
                           
<?xpacket end="w"?></metadata>
<defs>
    <style>
      .cls-1 {
        fill: #fff;
        fill-rule: evenodd;
      }
    </style>
  </defs>
  <path id="Smartphone_Call_designed_by_Freepik_from_Flaticon.com" data-name="Smartphone Call designed by Freepik from Flaticon.com" class="cls-1" d="M1055.37,11h-10.74a1.7,1.7,0,0,0-1.63,1.756V35.243A1.7,1.7,0,0,0,1044.63,37h10.74a1.7,1.7,0,0,0,1.63-1.757V12.756A1.7,1.7,0,0,0,1055.37,11Zm-7.09,1.266h3.44a0.213,0.213,0,0,1,0,.426h-3.44A0.213,0.213,0,0,1,1048.28,12.265ZM1050,36.122a0.881,0.881,0,1,1,.81-0.879A0.845,0.845,0,0,1,1050,36.122Zm5.87-2.372h-11.74V13.785h11.74V33.75Z" transform="translate(-1043 -11)"/>
</svg>
