<svg xmlns="http://www.w3.org/2000/svg" xmlns:xlink="http://www.w3.org/1999/xlink" width="30.41" height="31" viewBox="0 0 30.41 31">
  <metadata><?xpacket begin="﻿" id="W5M0MpCehiHzreSzNTczkc9d"?>
<x:xmpmeta xmlns:x="adobe:ns:meta/" x:xmptk="Adobe XMP Core 5.6-c138 79.159824, 2016/09/14-01:09:01        ">
   <rdf:RDF xmlns:rdf="http://www.w3.org/1999/02/22-rdf-syntax-ns#">
      <rdf:Description rdf:about=""/>
   </rdf:RDF>
</x:xmpmeta>
                                                                                                    
                                                                                                    
                                                                                                    
                                                                                                    
                                                                                                    
                                                                                                    
                                                                                                    
                                                                                                    
                                                                                                    
                                                                                                    
                                                                                                    
                                                                                                    
                                                                                                    
                                                                                                    
                                                                                                    
                                                                                                    
                                                                                                    
                                                                                                    
                                                                                                    
                                                                                                    
                           
<?xpacket end="w"?></metadata>
<defs>
    <style>
      .cls-1 {
        fill-rule: evenodd;
        filter: url(#filter);
      }
    </style>
    <filter id="filter" x="1021" y="1496" width="30.41" height="31" filterUnits="userSpaceOnUse">
      <feFlood result="flood" flood-color="#fff"/>
      <feComposite result="composite" operator="in" in2="SourceGraphic"/>
      <feBlend result="blend" in2="SourceGraphic"/>
    </filter>
  </defs>
  <path id="Forma_1_копия_3" data-name="Forma 1 копия 3" class="cls-1" d="M1036.2,1496a15.5,15.5,0,1,0,15.2,15.5A15.356,15.356,0,0,0,1036.2,1496Zm7.71,17.18a28.12,28.12,0,0,1,2.09,2.14,6.285,6.285,0,0,1,.75,1.1,0.8,0.8,0,0,1-.47,1.24h-3.12a2.411,2.411,0,0,1-1.98-.83c-0.43-.44-0.83-0.92-1.24-1.38a2.775,2.775,0,0,0-.57-0.51,0.639,0.639,0,0,0-1.03.25,3.313,3.313,0,0,0-.33,1.49,0.836,0.836,0,0,1-.99.98,7.889,7.889,0,0,1-4.46-.98,10.1,10.1,0,0,1-3-2.86,39.125,39.125,0,0,1-3.94-7.18c-0.25-.56-0.07-0.87.54-0.88,1.02-.02,2.04-0.02,3.05,0a0.9,0.9,0,0,1,.85.65,19.644,19.644,0,0,0,2.06,3.9,3.652,3.652,0,0,0,.78.88,0.474,0.474,0,0,0,.81-0.25,2.566,2.566,0,0,0,.18-0.82,12.44,12.44,0,0,0-.05-2.86,1.194,1.194,0,0,0-1-1.1c-0.3-.06-0.25-0.17-0.11-0.34a1.122,1.122,0,0,1,.96-0.49h3.51a0.859,0.859,0,0,1,.76.94v3.98a1.184,1.184,0,0,0,.5,1.02,0.694,0.694,0,0,0,.7-0.35,12.176,12.176,0,0,0,1.98-3.11c0.24-.49.45-1,0.65-1.51a0.743,0.743,0,0,1,.79-0.55h3.39a1.514,1.514,0,0,1,.3.02,0.6,0.6,0,0,1,.55.92,8.764,8.764,0,0,1-1.35,2.38c-0.56.8-1.17,1.57-1.73,2.37A1.1,1.1,0,0,0,1043.91,1513.18Z" transform="translate(-1021 -1496)"/>
</svg>
